<?xml version="1.0" encoding="UTF-8" standalone="no"?>
<!-- Created with Inkscape (http://www.inkscape.org/) -->

<svg
   xmlns:dc="http://purl.org/dc/elements/1.1/"
   xmlns:cc="http://creativecommons.org/ns#"
   xmlns:rdf="http://www.w3.org/1999/02/22-rdf-syntax-ns#"
   xmlns:svg="http://www.w3.org/2000/svg"
   xmlns="http://www.w3.org/2000/svg"
   xmlns:sodipodi="http://sodipodi.sourceforge.net/DTD/sodipodi-0.dtd"
   xmlns:inkscape="http://www.inkscape.org/namespaces/inkscape"
   width="297mm"
   height="210mm"
   viewBox="0 0 297 210"
   version="1.1"
   id="svg8"
   inkscape:export-filename="C:\Users\Aaron\Desktop\HULT_LOGO_Remake-01-03-18.png"
   inkscape:export-xdpi="300"
   inkscape:export-ydpi="300"
   inkscape:version="0.92.2 (5c3e80d, 2017-08-06)"
   sodipodi:docname="HULT_LOGO_Remake-01-03-18.svg">
  <defs
     id="defs2" />
  <sodipodi:namedview
     id="base"
     pagecolor="#ffffff"
     bordercolor="#666666"
     borderopacity="1.0"
     inkscape:pageopacity="0.0"
     inkscape:pageshadow="2"
     inkscape:zoom="0.7"
     inkscape:cx="557.65255"
     inkscape:cy="408.83605"
     inkscape:document-units="mm"
     inkscape:current-layer="layer2"
     showgrid="false"
     showguides="true"
     inkscape:guide-bbox="true"
     inkscape:window-width="1920"
     inkscape:window-height="1001"
     inkscape:window-x="-9"
     inkscape:window-y="-9"
     inkscape:window-maximized="1" />
  <metadata
     id="metadata5">
    <rdf:RDF>
      <cc:Work
         rdf:about="">
        <dc:format>image/svg+xml</dc:format>
        <dc:type
           rdf:resource="http://purl.org/dc/dcmitype/StillImage" />
        <dc:title></dc:title>
      </cc:Work>
    </rdf:RDF>
  </metadata>
  <g
     inkscape:groupmode="layer"
     id="layer2"
     inkscape:label="Tracciato"
     style="display:inline">
    <path
       style="color:#000000;font-style:normal;font-variant:normal;font-weight:normal;font-stretch:normal;font-size:medium;line-height:normal;font-family:sans-serif;font-variant-ligatures:normal;font-variant-position:normal;font-variant-caps:normal;font-variant-numeric:normal;font-variant-alternates:normal;font-feature-settings:normal;text-indent:0;text-align:start;text-decoration:none;text-decoration-line:none;text-decoration-style:solid;text-decoration-color:#000000;letter-spacing:normal;word-spacing:normal;text-transform:none;writing-mode:lr-tb;direction:ltr;text-orientation:mixed;dominant-baseline:auto;baseline-shift:baseline;text-anchor:start;white-space:normal;shape-padding:0;clip-rule:nonzero;display:inline;overflow:visible;visibility:visible;opacity:1;isolation:auto;mix-blend-mode:normal;color-interpolation:sRGB;color-interpolation-filters:linearRGB;solid-color:#000000;solid-opacity:1;vector-effect:none;fill:#000000;fill-opacity:1;fill-rule:nonzero;stroke:none;stroke-width:0.06654025;stroke-linecap:butt;stroke-linejoin:miter;stroke-miterlimit:4;stroke-dasharray:none;stroke-dashoffset:0;stroke-opacity:1;color-rendering:auto;image-rendering:auto;shape-rendering:auto;text-rendering:auto;enable-background:accumulate"
       d="M 61.115322,24.278989 48.826587,36.570474 v 0.275772 4.301643 H 8.3822135 v 70.142551 c 0,8.3388 3.0666175,21.04372 11.2000845,31.74481 8.042944,10.58201 21.099389,19.14646 40.87557,19.33917 v 17.24233 c 0,1.66377 0.922187,3.12427 2.160103,4.1586 1.237919,1.03432 2.812379,1.6842 4.330529,1.6842 v -1.33072 c -1.12383,0 -2.464018,-0.52566 -3.477764,-1.37267 -1.013746,-0.84704 -1.682143,-1.97475 -1.682143,-3.13941 v -17.24233 c 19.776857,-0.18677 32.837567,-8.75478 40.888637,-19.34467 8.14158,-10.70896 11.21865,-23.42439 11.21865,-31.77025 V 41.147889 H 73.65507 l 0.0591,-4.681259 z M 61.788593,26.781574 72.37524,37.02299 72.0919,59.264299 61.788593,69.570359 Z m -1.330725,0.03645 V 69.570359 L 50.157308,59.267053 V 37.121331 Z M 9.7136215,42.478613 H 48.826587 V 59.817909 L 60.457868,71.45194 v 4.955657 L 43.172902,58.877117 H 24.8433 l -0.665021,0.665707 V 78.298809 L 43.022291,97.798208 H 41.088443 L 25.986964,82.085352 v 20.702898 l 16.91773,17.4569 H 40.60223 L 27.775018,106.64838 v 18.74567 l 16.617198,17.12129 h 13.367755 l 2.697897,-2.78386 v 21.31221 C 41.065267,160.85354 28.475525,152.53474 20.642751,142.22926 12.720081,131.8055 9.7136245,119.29956 9.7136215,111.29044 Z m 63.9242585,0 h 38.92659 V 111.2595 c 0,8.01557 -3.01409,20.53247 -10.94494,30.96425 -7.84097,10.31353 -20.43797,18.63539 -39.830937,18.81994 V 139.7308 l 2.698583,2.78454 H 77.85493 l 16.61651,-17.12129 v -18.74567 l -12.82721,13.59677 h -2.30315 l 16.91635,-17.4569 V 82.085352 L 81.15801,97.798208 H 79.22486 L 98.06887,78.298809 V 59.542824 L 97.40316,58.877117 H 79.07356 L 61.788593,76.408288 V 71.45194 L 73.41781,59.823409 Z M 26.407843,60.207842 h 16.209386 l 17.840639,18.09303 v 3.424808 l -6.795288,6.745088 z m 53.222077,0 H 95.83586 L 68.58319,88.470768 61.788593,81.727743 v -3.426184 z m 17.10822,0.982743 v 16.569744 l -19.06683,19.729779 -8.14389,-8.08268 z m -71.229136,7.04e-4 27.210033,28.215469 -8.14389,8.08337 -19.066143,-19.729799 z m 34.948864,22.409113 v 11.917366 l -5.871689,-6.08969 z m 1.330725,0.0021 5.870997,5.826306 -5.870997,6.08832 z m -34.470904,1.786678 13.20408,13.739808 h 3.786543 L 54.785613,109.97147 44.878429,120.2452 H 44.757392 L 27.317689,102.25053 Z m 67.609021,0.0028 v 16.85858 L 77.48838,120.24525 H 77.36597 L 67.46016,109.97207 77.93883,99.128908 h 3.78586 z m -41.284074,4.972848 6.815232,7.06762 v 6.657062 L 55.710589,109.01284 45.50012,98.446828 Z m 14.960494,7.1e-4 8.14321,8.08199 -10.21047,10.565332 -4.747277,-4.92333 v -6.657062 z m -6.814537,15.641332 3.821617,3.96398 -3.821617,3.95434 z m -1.330725,7e-4 v 7.91695 l -3.82162,-3.95366 z m 32.682852,3.98873 v 14.85734 l -15.8504,16.33111 H 65.051099 l -3.001178,-3.09676 16.001699,-16.51198 h 4.16478 z m -64.03429,0.003 10.921563,11.57695 h 4.166162 l 16.002381,16.51267 -3.000488,3.09608 H 44.95339 L 29.10643,124.85351 Z m 26.604845,0.93048 4.746593,4.91164 v 20.60372 L 45.745635,121.26457 Z m 10.823905,0 9.96565,10.33425 -14.712237,15.18195 v -20.60456 z"
       id="path877"
       inkscape:connector-curvature="0"
       sodipodi:nodetypes="cccccsscsccccscsscccccccccccccccccccccccccccccccccccsscccsccccccccccccccccccccccccccccccccccccccccccccccccccccccccccccccccccccccccccccccccccccccccccccccccccccccccccccccccc" />
    <g
       aria-label="HULT"
       style="font-style:normal;font-weight:normal;font-size:40.307724px;line-height:1.25;font-family:sans-serif;letter-spacing:0px;word-spacing:0px;fill:#000000;fill-opacity:1;stroke:none;stroke-width:1.00769305"
       id="text975"
       transform="matrix(1.330805,0,0,1.330805,-49.050038,-23.625004)">
      <path
         d="m 141.7015,69.43242 h 12.39935 v -7.636424 q 0,-2.046876 -0.25586,-2.696366 -0.19681,-0.492038 -0.82662,-0.846305 -0.84631,-0.472356 -1.79102,-0.472356 h -0.94471 v -0.728216 h 11.41527 v 0.728216 h -0.94471 q -0.94471,0 -1.79102,0.452675 -0.62981,0.314904 -0.86598,0.964393 -0.2165,0.629809 -0.2165,2.597959 v 17.221318 q 0,2.027195 0.25586,2.676685 0.19681,0.492037 0.80694,0.846304 0.86599,0.472357 1.8107,0.472357 h 0.94471 v 0.728215 H 150.28264 V 83.01266 h 0.94471 q 1.63357,0 2.38146,-0.964394 0.49204,-0.629808 0.49204,-3.030952 V 70.888852 H 141.7015 v 8.128462 q 0,2.027195 0.25586,2.676685 0.19682,0.492037 0.82663,0.846304 0.8463,0.472357 1.79101,0.472357 h 0.9644 v 0.728215 H 134.10444 V 83.01266 h 0.94471 q 1.65325,0 2.40115,-0.964394 0.47235,-0.629808 0.47235,-3.030952 V 61.795996 q 0,-2.046876 -0.25586,-2.696366 -0.19681,-0.492038 -0.80694,-0.846305 -0.86598,-0.472356 -1.8107,-0.472356 h -0.94471 v -0.728216 h 11.43496 v 0.728216 h -0.9644 q -0.94471,0 -1.79101,0.452675 -0.61013,0.314904 -0.84631,0.964393 -0.23618,0.629809 -0.23618,2.597959 z"
         style="font-style:normal;font-variant:normal;font-weight:normal;font-stretch:normal;font-family:'Times New Roman';-inkscape-font-specification:'Times New Roman, ';stroke-width:1.00769305"
         id="path1038"
         inkscape:connector-curvature="0" />
      <path
         d="m 186.00641,57.780969 v -0.728216 h 9.44712 v 0.728216 h -1.00376 q -1.57452,0 -2.42082,1.318661 -0.41331,0.610127 -0.41331,2.834137 v 10.824828 q 0,4.015027 -0.80695,6.239037 -0.78726,2.204329 -3.12935,3.798531 -2.32242,1.57452 -6.33745,1.57452 -4.36929,0 -6.63267,-1.515476 -2.26337,-1.515475 -3.20808,-4.074071 -0.62981,-1.751654 -0.62981,-6.573623 V 61.776315 q 0,-2.460189 -0.68885,-3.227767 -0.66917,-0.767579 -2.18465,-0.767579 h -1.00376 v -0.728216 h 11.53337 v 0.728216 H 177.504 q -1.65325,0 -2.36178,1.04312 -0.49204,0.708534 -0.49204,2.952226 v 11.63177 q 0,1.554839 0.27554,3.562352 0.29522,2.007514 1.04312,3.12936 0.7479,1.121845 2.14528,1.850061 1.41707,0.728216 3.46395,0.728216 2.61764,0 4.6842,-1.141527 2.06656,-1.141528 2.81445,-2.912863 0.76758,-1.791017 0.76758,-6.042223 V 61.776315 q 0,-2.499552 -0.55108,-3.12936 -0.76758,-0.865986 -2.28306,-0.865986 z"
         style="font-style:normal;font-variant:normal;font-weight:normal;font-stretch:normal;font-family:'Times New Roman';-inkscape-font-specification:'Times New Roman, ';stroke-width:1.00769305"
         id="path1040"
         inkscape:connector-curvature="0" />
      <path
         d="m 222.18731,76.360311 0.64949,0.13777 -2.28305,7.242794 H 199.88817 V 83.01266 h 1.00375 q 1.69261,0 2.42083,-1.102165 0.41331,-0.629808 0.41331,-2.912863 V 61.776315 q 0,-2.499552 -0.55108,-3.12936 -0.76758,-0.865986 -2.28306,-0.865986 h -1.00375 v -0.728216 h 12.08444 v 0.728216 q -2.1256,-0.01968 -2.99159,0.39363 -0.8463,0.413312 -1.16121,1.04312 -0.3149,0.629808 -0.3149,3.01127 v 16.768643 q 0,1.633565 0.3149,2.243692 0.23618,0.413312 0.72822,0.610127 0.49204,0.196815 3.07031,0.196815 h 1.94847 q 3.07032,0 4.31025,-0.452675 1.23994,-0.452675 2.26338,-1.594202 1.02343,-1.161209 2.04687,-3.641078 z"
         style="font-style:normal;font-variant:normal;font-weight:normal;font-stretch:normal;font-family:'Times New Roman';-inkscape-font-specification:'Times New Roman, ';stroke-width:1.00769305"
         id="path1042"
         inkscape:connector-curvature="0" />
      <path
         d="m 244.40327,57.052753 0.29522,6.258719 h -0.74789 q -0.2165,-1.653246 -0.59045,-2.361781 -0.61012,-1.141527 -1.63356,-1.672928 -1.00376,-0.551082 -2.65701,-0.551082 h -3.75916 v 20.39004 q 0,2.460189 0.5314,3.070315 0.74789,0.826624 2.30273,0.826624 h 0.92503 v 0.728215 H 227.75272 V 83.01266 h 0.94471 q 1.69261,0 2.40114,-1.023439 0.433,-0.629808 0.433,-2.8735 v -20.39004 h -3.20809 q -1.86974,0 -2.657,0.275541 -1.02344,0.373949 -1.75166,1.43675 -0.72821,1.062802 -0.86598,2.8735 h -0.7479 l 0.31491,-6.258719 z"
         style="font-style:normal;font-variant:normal;font-weight:normal;font-stretch:normal;font-family:'Times New Roman';-inkscape-font-specification:'Times New Roman, ';stroke-width:1.00769305"
         id="path1044"
         inkscape:connector-curvature="0" />
    </g>
    <g
       aria-label="INTERNATIONAL
BUSINESS SCHOOL"
       style="font-style:normal;font-variant:normal;font-weight:normal;font-stretch:normal;font-size:11.41248512px;line-height:1.25;font-family:Arial;-inkscape-font-specification:Arial;letter-spacing:0px;word-spacing:0px;fill:#000000;fill-opacity:1;stroke:none;stroke-width:0.28531212"
       id="text979"
       transform="matrix(1.330805,0,0,1.330805,-49.050038,-23.625004)">
      <path
         d="m 136.24065,104.48967 v -8.169289 h 1.08107 v 8.169289 z"
         style="font-style:normal;font-variant:normal;font-weight:normal;font-stretch:normal;font-family:Arial;-inkscape-font-specification:Arial;stroke-width:0.28531212"
         id="path983"
         inkscape:connector-curvature="0" />
      <path
         d="m 140.2551,104.48967 v -8.169289 h 1.10892 l 4.29083,6.413949 v -6.413949 h 1.03649 v 8.169289 h -1.10893 l -4.29083,-6.419523 v 6.419523 z"
         style="font-style:normal;font-variant:normal;font-weight:normal;font-stretch:normal;font-family:Arial;-inkscape-font-specification:Arial;stroke-width:0.28531212"
         id="path985"
         inkscape:connector-curvature="0" />
      <path
         d="m 151.58509,104.48967 v -7.205246 h -2.69152 v -0.964043 h 6.47525 v 0.964043 h -2.70267 v 7.205246 z"
         style="font-style:normal;font-variant:normal;font-weight:normal;font-stretch:normal;font-family:Arial;-inkscape-font-specification:Arial;stroke-width:0.28531212"
         id="path987"
         inkscape:connector-curvature="0" />
      <path
         d="m 157.36739,104.48967 v -8.169289 h 5.90685 v 0.964043 h -4.82578 v 2.502049 h 4.51929 v 0.958477 h -4.51929 v 2.78067 h 5.01525 v 0.96405 z"
         style="font-style:normal;font-variant:normal;font-weight:normal;font-stretch:normal;font-family:Arial;-inkscape-font-specification:Arial;stroke-width:0.28531212"
         id="path989"
         inkscape:connector-curvature="0" />
      <path
         d="m 165.31372,104.52308 v -8.16929 h 3.62213 q 1.09221,0 1.6606,0.2229 0.5684,0.217328 0.90832,0.774578 0.33992,0.557251 0.33992,1.231523 0,0.869311 -0.56282,1.465569 -0.56282,0.59626 -1.73862,0.75786 0.42908,0.20618 0.65198,0.40679 0.47366,0.43466 0.89717,1.08664 l 1.42099,2.22343 h -1.35969 l -1.08106,-1.69962 q -0.47367,-0.73557 -0.78015,-1.12564 -0.30649,-0.39008 -0.55168,-0.54611 -0.23962,-0.15603 -0.49038,-0.21732 -0.18389,-0.039 -0.60183,-0.039 h -1.25382 v 3.6277 z m 1.08106,-4.563878 h 2.32374 q 0.74114,0 1.15908,-0.15046 0.41794,-0.15603 0.63526,-0.49038 0.21733,-0.339923 0.21733,-0.735571 0,-0.57954 -0.42351,-0.952898 -0.41794,-0.373357 -1.32625,-0.373357 h -2.58565 z"
         style="font-style:normal;font-variant:normal;font-weight:normal;font-stretch:normal;font-family:Arial;-inkscape-font-specification:Arial;stroke-width:0.28531212"
         id="path991"
         inkscape:connector-curvature="0" />
      <path
         d="m 174.26278,104.48967 v -8.169289 h 1.10893 l 4.29083,6.413949 v -6.413949 h 1.03648 v 8.169289 h -1.10893 l -4.29082,-6.419523 v 6.419523 z"
         style="font-style:normal;font-variant:normal;font-weight:normal;font-stretch:normal;font-family:Arial;-inkscape-font-specification:Arial;stroke-width:0.28531212"
         id="path993"
         inkscape:connector-curvature="0" />
      <path
         d="m 183.21157,104.48967 3.13732,-8.169289 h 1.16465 l 3.3435,8.169289 h -1.23152 l -0.9529,-2.47419 h -3.41594 l -0.89718,2.47419 z m 2.35717,-3.35465 h 2.76953 l -0.85259,-2.262433 q -0.39008,-1.030913 -0.57954,-1.69404 -0.15603,0.785723 -0.44023,1.5603 z"
         style="font-style:normal;font-variant:normal;font-weight:normal;font-stretch:normal;font-family:Arial;-inkscape-font-specification:Arial;stroke-width:0.28531212"
         id="path995"
         inkscape:connector-curvature="0" />
      <path
         d="m 194.24417,104.48967 v -7.205246 h -2.69152 v -0.964043 h 6.47525 v 0.964043 h -2.70267 v 7.205246 z"
         style="font-style:normal;font-variant:normal;font-weight:normal;font-stretch:normal;font-family:Arial;-inkscape-font-specification:Arial;stroke-width:0.28531212"
         id="path997"
         inkscape:connector-curvature="0" />
      <path
         d="m 200.50469,104.48967 v -8.169289 h 1.08107 v 8.169289 z"
         style="font-style:normal;font-variant:normal;font-weight:normal;font-stretch:normal;font-family:Arial;-inkscape-font-specification:Arial;stroke-width:0.28531212"
         id="path999"
         inkscape:connector-curvature="0" />
      <path
         d="m 204.22627,100.5109 q 0,-2.03396 1.09221,-3.181896 1.09221,-1.153508 2.81969,-1.153508 1.13121,0 2.03953,0.540533 0.90832,0.540533 1.38198,1.510148 0.47924,0.964043 0.47924,2.189993 0,1.24267 -0.50153,2.22343 -0.50152,0.98076 -1.42099,1.48785 -0.91946,0.50153 -1.98381,0.50153 -1.1535,0 -2.06182,-0.55725 -0.90832,-0.55725 -1.37641,-1.52129 -0.46809,-0.96405 -0.46809,-2.03954 z m 1.1145,0.0167 q 0,1.47671 0.7913,2.3293 0.79686,0.84702 1.99495,0.84702 1.22038,0 2.0061,-0.85816 0.7913,-0.85817 0.7913,-2.43518 0,-0.99748 -0.33992,-1.738623 -0.33436,-0.746715 -0.98634,-1.153508 -0.64641,-0.412365 -1.45442,-0.412365 -1.14794,0 -1.97824,0.791296 -0.82473,0.785722 -0.82473,2.63022 z"
         style="font-style:normal;font-variant:normal;font-weight:normal;font-stretch:normal;font-family:Arial;-inkscape-font-specification:Arial;stroke-width:0.28531212"
         id="path1001"
         inkscape:connector-curvature="0" />
      <path
         style="font-style:normal;font-variant:normal;font-weight:normal;font-stretch:normal;font-family:Arial;-inkscape-font-specification:Arial;stroke-width:0.28531212"
         d="m 214.40374,96.296594 v 8.169526 h 1.03663 v -6.419763 l 4.2907,6.419763 h 1.10897 v -8.169526 h -1.03663 v 6.414076 l -4.29069,-6.414076 z"
         id="path1003"
         inkscape:connector-curvature="0" />
      <path
         d="m 223.06922,104.48967 3.13732,-8.169289 h 1.16465 l 3.3435,8.169289 h -1.23152 l -0.9529,-2.47419 h -3.41594 l -0.89718,2.47419 z m 2.35717,-3.35465 h 2.76953 l -0.85259,-2.262433 q -0.39008,-1.030913 -0.57954,-1.69404 -0.15603,0.785723 -0.44023,1.5603 z"
         style="font-style:normal;font-variant:normal;font-weight:normal;font-stretch:normal;font-family:Arial;-inkscape-font-specification:Arial;stroke-width:0.28531212"
         id="path1005"
         inkscape:connector-curvature="0" />
      <path
         d="m 233.13257,104.48967 v -8.169289 h 1.08106 v 7.205239 h 4.02335 v 0.96405 z"
         style="font-style:normal;font-variant:normal;font-weight:normal;font-stretch:normal;font-family:Arial;-inkscape-font-specification:Arial;stroke-width:0.28531212"
         id="path1007"
         inkscape:connector-curvature="0" />
      <path
         d="m 136.26541,120.87195 v -8.16929 h 3.06488 q 0.93618,0 1.499,0.25077 0.5684,0.24519 0.88603,0.76343 0.3232,0.51267 0.3232,1.07549 0,0.52382 -0.28419,0.98634 -0.2842,0.46251 -0.85817,0.74671 0.74114,0.21733 1.13679,0.74114 0.40122,0.52382 0.40122,1.2371 0,0.57397 -0.24519,1.06992 -0.23962,0.49038 -0.59626,0.75786 -0.35664,0.26748 -0.89717,0.40679 -0.53496,0.13374 -1.31511,0.13374 z m 1.08107,-4.73662 h 1.76648 q 0.71885,0 1.03091,-0.0947 0.41237,-0.12259 0.61855,-0.40679 0.21175,-0.2842 0.21175,-0.71328 0,-0.40679 -0.19503,-0.71328 -0.19504,-0.31206 -0.55725,-0.42351 -0.36222,-0.11702 -1.24267,-0.11702 h -1.63274 z m 0,3.77258 h 2.03396 q 0.52381,0 0.73557,-0.039 0.37336,-0.0669 0.62412,-0.2229 0.25076,-0.15603 0.41236,-0.45137 0.16161,-0.30092 0.16161,-0.69099 0,-0.45695 -0.23405,-0.7913 -0.23404,-0.33992 -0.65198,-0.47366 -0.41237,-0.13931 -1.19252,-0.13931 h -1.88907 z"
         style="font-style:normal;font-variant:normal;font-weight:normal;font-stretch:normal;font-family:Arial;-inkscape-font-specification:Arial;stroke-width:0.28531212"
         id="path1009"
         inkscape:connector-curvature="0" />
      <path
         d="m 149.29392,112.70266 h 1.08107 v 4.71991 q 0,1.23153 -0.27863,1.95595 -0.27862,0.72443 -1.00862,1.18137 -0.72443,0.45138 -1.9058,0.45138 -1.14793,0 -1.87793,-0.39565 -0.73,-0.39565 -1.04206,-1.14236 -0.31206,-0.75229 -0.31206,-2.05069 v -4.71991 h 1.08107 v 4.71434 q 0,1.06435 0.19503,1.57145 0.20061,0.50152 0.67985,0.77458 0.48481,0.27305 1.18137,0.27305 1.19252,0 1.69961,-0.54053 0.5071,-0.54054 0.5071,-2.07855 z"
         style="font-style:normal;font-variant:normal;font-weight:normal;font-stretch:normal;font-family:Arial;-inkscape-font-specification:Arial;stroke-width:0.28531212"
         id="path1011"
         inkscape:connector-curvature="0" />
      <path
         d="m 152.34186,118.2473 1.01977,-0.0892 q 0.0724,0.61298 0.33435,1.00863 0.26748,0.39007 0.82473,0.63526 0.55725,0.23962 1.25381,0.23962 0.61855,0 1.09221,-0.18389 0.47367,-0.18389 0.70214,-0.50153 0.23404,-0.3232 0.23404,-0.70213 0,-0.38451 -0.2229,-0.6687 -0.2229,-0.28977 -0.73557,-0.48481 -0.32877,-0.12817 -1.45442,-0.39565 -1.12564,-0.27305 -1.57702,-0.51267 -0.58511,-0.30649 -0.87488,-0.75786 -0.2842,-0.45694 -0.2842,-1.01977 0,-0.61854 0.35107,-1.1535 0.35107,-0.54054 1.02534,-0.81916 0.67427,-0.27863 1.499,-0.27863 0.90832,0 1.59931,0.29534 0.69656,0.28977 1.06992,0.85817 0.37336,0.5684 0.40122,1.28725 l -1.03648,0.078 q -0.0836,-0.77457 -0.5684,-1.17022 -0.47923,-0.39565 -1.42099,-0.39565 -0.98076,0 -1.43213,0.36221 -0.4458,0.35664 -0.4458,0.86374 0,0.44023 0.31763,0.72443 0.31206,0.28419 1.62717,0.58511 1.32069,0.29534 1.81107,0.51824 0.71328,0.32878 1.0532,0.83588 0.33992,0.50152 0.33992,1.15908 0,0.65198 -0.37335,1.23152 -0.37336,0.57397 -1.0755,0.89717 -0.69656,0.31764 -1.57144,0.31764 -1.10893,0 -1.86122,-0.32321 -0.74671,-0.3232 -1.1758,-0.96961 -0.42351,-0.65199 -0.4458,-1.47115 z"
         style="font-style:normal;font-variant:normal;font-weight:normal;font-stretch:normal;font-family:Arial;-inkscape-font-specification:Arial;stroke-width:0.28531212"
         id="path1013"
         inkscape:connector-curvature="0" />
      <path
         d="m 161.57506,120.87195 v -8.16929 h 1.08107 v 8.16929 z"
         style="font-style:normal;font-variant:normal;font-weight:normal;font-stretch:normal;font-family:Arial;-inkscape-font-specification:Arial;stroke-width:0.28531212"
         id="path1015"
         inkscape:connector-curvature="0" />
      <path
         d="m 165.60355,120.87195 v -8.16929 h 1.10892 l 4.29083,6.41396 v -6.41396 h 1.03649 v 8.16929 h -1.10893 l -4.29083,-6.41952 v 6.41952 z"
         style="font-style:normal;font-variant:normal;font-weight:normal;font-stretch:normal;font-family:Arial;-inkscape-font-specification:Arial;stroke-width:0.28531212"
         id="path1017"
         inkscape:connector-curvature="0" />
      <path
         d="m 174.94262,120.87195 v -8.16929 h 5.90686 v 0.96405 h -4.82579 v 2.50205 h 4.5193 v 0.95847 h -4.5193 v 2.78068 h 5.01525 v 0.96404 z"
         style="font-style:normal;font-variant:normal;font-weight:normal;font-stretch:normal;font-family:Arial;-inkscape-font-specification:Arial;stroke-width:0.28531212"
         id="path1019"
         inkscape:connector-curvature="0" />
      <path
         d="m 182.7049,118.2473 1.01977,-0.0892 q 0.0724,0.61298 0.33435,1.00863 0.26748,0.39007 0.82473,0.63526 0.55725,0.23962 1.25382,0.23962 0.61854,0 1.09221,-0.18389 0.47366,-0.18389 0.70213,-0.50153 0.23405,-0.3232 0.23405,-0.70213 0,-0.38451 -0.2229,-0.6687 -0.2229,-0.28977 -0.73557,-0.48481 -0.32878,-0.12817 -1.45443,-0.39565 -1.12564,-0.27305 -1.57702,-0.51267 -0.58511,-0.30649 -0.87488,-0.75786 -0.2842,-0.45694 -0.2842,-1.01977 0,-0.61854 0.35107,-1.1535 0.35107,-0.54054 1.02534,-0.81916 0.67428,-0.27863 1.49901,-0.27863 0.90831,0 1.5993,0.29534 0.69657,0.28977 1.06992,0.85817 0.37336,0.5684 0.40122,1.28725 l -1.03648,0.078 q -0.0836,-0.77457 -0.5684,-1.17022 -0.47923,-0.39565 -1.42098,-0.39565 -0.98077,0 -1.43214,0.36221 -0.4458,0.35664 -0.4458,0.86374 0,0.44023 0.31763,0.72443 0.31206,0.28419 1.62718,0.58511 1.32068,0.29534 1.81106,0.51824 0.71328,0.32878 1.0532,0.83588 0.33992,0.50152 0.33992,1.15908 0,0.65198 -0.37335,1.23152 -0.37336,0.57397 -1.0755,0.89717 -0.69656,0.31764 -1.57144,0.31764 -1.10893,0 -1.86122,-0.32321 -0.74671,-0.3232 -1.1758,-0.96961 -0.42351,-0.65199 -0.4458,-1.47115 z"
         style="font-style:normal;font-variant:normal;font-weight:normal;font-stretch:normal;font-family:Arial;-inkscape-font-specification:Arial;stroke-width:0.28531212"
         id="path1021"
         inkscape:connector-curvature="0" />
      <path
         d="m 190.85726,118.2473 1.01977,-0.0892 q 0.0724,0.61298 0.33435,1.00863 0.26748,0.39007 0.82473,0.63526 0.55725,0.23962 1.25381,0.23962 0.61855,0 1.09221,-0.18389 0.47366,-0.18389 0.70214,-0.50153 0.23404,-0.3232 0.23404,-0.70213 0,-0.38451 -0.2229,-0.6687 -0.2229,-0.28977 -0.73557,-0.48481 -0.32878,-0.12817 -1.45442,-0.39565 -1.12565,-0.27305 -1.57702,-0.51267 -0.58511,-0.30649 -0.87488,-0.75786 -0.2842,-0.45694 -0.2842,-1.01977 0,-0.61854 0.35107,-1.1535 0.35106,-0.54054 1.02534,-0.81916 0.67427,-0.27863 1.499,-0.27863 0.90832,0 1.59931,0.29534 0.69656,0.28977 1.06992,0.85817 0.37336,0.5684 0.40122,1.28725 l -1.03649,0.078 q -0.0836,-0.77457 -0.56839,-1.17022 -0.47924,-0.39565 -1.42099,-0.39565 -0.98076,0 -1.43213,0.36221 -0.4458,0.35664 -0.4458,0.86374 0,0.44023 0.31763,0.72443 0.31206,0.28419 1.62717,0.58511 1.32068,0.29534 1.81106,0.51824 0.71328,0.32878 1.05321,0.83588 0.33992,0.50152 0.33992,1.15908 0,0.65198 -0.37336,1.23152 -0.37336,0.57397 -1.07549,0.89717 -0.69656,0.31764 -1.57145,0.31764 -1.10893,0 -1.86121,-0.32321 -0.74672,-0.3232 -1.1758,-0.96961 -0.42351,-0.65199 -0.4458,-1.47115 z"
         style="font-style:normal;font-variant:normal;font-weight:normal;font-stretch:normal;font-family:Arial;-inkscape-font-specification:Arial;stroke-width:0.28531212"
         id="path1023"
         inkscape:connector-curvature="0" />
      <path
         d="m 203.23313,118.2473 1.01977,-0.0892 q 0.0724,0.61298 0.33435,1.00863 0.26748,0.39007 0.82473,0.63526 0.55725,0.23962 1.25381,0.23962 0.61855,0 1.09221,-0.18389 0.47367,-0.18389 0.70214,-0.50153 0.23405,-0.3232 0.23405,-0.70213 0,-0.38451 -0.22291,-0.6687 -0.2229,-0.28977 -0.73557,-0.48481 -0.32877,-0.12817 -1.45442,-0.39565 -1.12564,-0.27305 -1.57702,-0.51267 -0.58511,-0.30649 -0.87488,-0.75786 -0.2842,-0.45694 -0.2842,-1.01977 0,-0.61854 0.35107,-1.1535 0.35107,-0.54054 1.02534,-0.81916 0.67427,-0.27863 1.499,-0.27863 0.90832,0 1.59931,0.29534 0.69657,0.28977 1.06992,0.85817 0.37336,0.5684 0.40122,1.28725 l -1.03648,0.078 q -0.0836,-0.77457 -0.5684,-1.17022 -0.47923,-0.39565 -1.42099,-0.39565 -0.98076,0 -1.43213,0.36221 -0.4458,0.35664 -0.4458,0.86374 0,0.44023 0.31763,0.72443 0.31206,0.28419 1.62717,0.58511 1.32069,0.29534 1.81107,0.51824 0.71328,0.32878 1.0532,0.83588 0.33992,0.50152 0.33992,1.15908 0,0.65198 -0.37335,1.23152 -0.37336,0.57397 -1.0755,0.89717 -0.69656,0.31764 -1.57144,0.31764 -1.10893,0 -1.86122,-0.32321 -0.74671,-0.3232 -1.1758,-0.96961 -0.42351,-0.65199 -0.4458,-1.47115 z"
         style="font-style:normal;font-variant:normal;font-weight:normal;font-stretch:normal;font-family:Arial;-inkscape-font-specification:Arial;stroke-width:0.28531212"
         id="path1025"
         inkscape:connector-curvature="0" />
      <path
         d="m 217.58211,118.00769 1.08107,0.27305 q -0.33993,1.33183 -1.22596,2.03396 -0.88045,0.69657 -2.15655,0.69657 -1.32069,0 -2.15099,-0.53496 -0.82473,-0.54054 -1.25939,-1.5603 -0.42908,-1.01977 -0.42908,-2.19 0,-1.2761 0.48481,-2.22343 0.49038,-0.95289 1.38755,-1.44328 0.90275,-0.49595 1.98381,-0.49595 1.22595,0 2.06183,0.62412 0.83587,0.62412 1.16465,1.75534 l -1.06435,0.25076 q -0.28419,-0.8916 -0.82473,-1.29839 -0.54053,-0.40679 -1.35969,-0.40679 -0.94175,0 -1.57701,0.45137 -0.6297,0.45137 -0.88603,1.21481 -0.25634,0.75786 -0.25634,1.56587 0,1.04206 0.30092,1.82221 0.30649,0.77458 0.94732,1.15908 0.64084,0.3845 1.38756,0.3845 0.90831,0 1.53801,-0.52381 0.62969,-0.52382 0.85259,-1.55473 z"
         style="font-style:normal;font-variant:normal;font-weight:normal;font-stretch:normal;font-family:Arial;-inkscape-font-specification:Arial;stroke-width:0.28531212"
         id="path1027"
         inkscape:connector-curvature="0" />
      <path
         d="m 220.56318,120.87195 v -8.16929 h 1.08106 v 3.35465 h 4.24625 v -3.35465 h 1.08106 v 8.16929 h -1.08106 v -3.8506 h -4.24625 v 3.8506 z"
         style="font-style:normal;font-variant:normal;font-weight:normal;font-stretch:normal;font-family:Arial;-inkscape-font-specification:Arial;stroke-width:0.28531212"
         id="path1029"
         inkscape:connector-curvature="0" />
      <path
         d="m 228.97744,116.89319 q 0,-2.03397 1.09221,-3.1819 1.09221,-1.15351 2.81969,-1.15351 1.13122,0 2.03953,0.54053 0.90832,0.54054 1.38198,1.51015 0.47924,0.96404 0.47924,2.18999 0,1.24267 -0.50153,2.22343 -0.50152,0.98076 -1.42098,1.48786 -0.91947,0.50153 -1.98382,0.50153 -1.1535,0 -2.06182,-0.55725 -0.90832,-0.55725 -1.37641,-1.5213 -0.46809,-0.96404 -0.46809,-2.03953 z m 1.1145,0.0167 q 0,1.47672 0.7913,2.32931 0.79686,0.84702 1.99495,0.84702 1.22038,0 2.0061,-0.85816 0.7913,-0.85817 0.7913,-2.43519 0,-0.99748 -0.33992,-1.73862 -0.33435,-0.74671 -0.98634,-1.15351 -0.64641,-0.41236 -1.45442,-0.41236 -1.14794,0 -1.97824,0.79129 -0.82473,0.78573 -0.82473,2.63022 z"
         style="font-style:normal;font-variant:normal;font-weight:normal;font-stretch:normal;font-family:Arial;-inkscape-font-specification:Arial;stroke-width:0.28531212"
         id="path1031"
         inkscape:connector-curvature="0" />
      <path
         d="m 238.9072,116.89319 q 0,-2.03397 1.09221,-3.1819 1.09221,-1.15351 2.81969,-1.15351 1.13122,0 2.03953,0.54053 0.90832,0.54054 1.38199,1.51015 0.47923,0.96404 0.47923,2.18999 0,1.24267 -0.50152,2.22343 -0.50153,0.98076 -1.42099,1.48786 -0.91947,0.50153 -1.98381,0.50153 -1.15351,0 -2.06183,-0.55725 -0.90832,-0.55725 -1.37641,-1.5213 -0.46809,-0.96404 -0.46809,-2.03953 z m 1.1145,0.0167 q 0,1.47672 0.7913,2.32931 0.79687,0.84702 1.99495,0.84702 1.22038,0 2.0061,-0.85816 0.7913,-0.85817 0.7913,-2.43519 0,-0.99748 -0.33992,-1.73862 -0.33435,-0.74671 -0.98634,-1.15351 -0.64641,-0.41236 -1.45442,-0.41236 -1.14793,0 -1.97824,0.79129 -0.82473,0.78573 -0.82473,2.63022 z"
         style="font-style:normal;font-variant:normal;font-weight:normal;font-stretch:normal;font-family:Arial;-inkscape-font-specification:Arial;stroke-width:0.28531212"
         id="path1033"
         inkscape:connector-curvature="0" />
      <path
         d="m 249.12117,120.87195 v -8.16929 h 1.08106 v 7.20525 h 4.02335 v 0.96404 z"
         style="font-style:normal;font-variant:normal;font-weight:normal;font-stretch:normal;font-family:Arial;-inkscape-font-specification:Arial;stroke-width:0.28531212"
         id="path1035"
         inkscape:connector-curvature="0" />
    </g>
  </g>
</svg>
